HIERARCHY
ROOT Hips
{
  OFFSET -43.3411 73.6987 0
  CHANNELS 6 Xposition Yposition Zposition Zrotation Xrotation Yrotation
  JOINT Bip01_Pelvis
  {
    OFFSET 0 0 0
    CHANNELS 6 Xposition Yposition Zposition Zrotation Xrotation Yrotation
    JOINT BN_Tail_01
    {
      OFFSET -18.6385 -9.591 -2.032e-005
      CHANNELS 6 Xposition Yposition Zposition Zrotation Xrotation Yrotation
      JOINT BN_Tail_02
      {
        OFFSET 20.9743 0 0
        CHANNELS 6 Xposition Yposition Zposition Zrotation Xrotation Yrotation
        JOINT BN_Tail_03
        {
          OFFSET 20.3015 0 0
          CHANNELS 6 Xposition Yposition Zposition Zrotation Xrotation Yrotation
          JOINT BN_Tail_04
          {
            OFFSET 21.6394 -9.91821e-005 0
            CHANNELS 6 Xposition Yposition Zposition Zrotation Xrotation Yrotation
            End Site
            {
              OFFSET 0 0 0
            }
          }
        }
      }
    }
    JOINT Bip01_Spine
    {
      OFFSET 22.1878 -0.659386 3.048e-005
      CHANNELS 6 Xposition Yposition Zposition Zrotation Xrotation Yrotation
      JOINT Bip01_R_Thigh
      {
        OFFSET -22.1873 0.677109 -17.1024
        CHANNELS 6 Xposition Yposition Zposition Zrotation Xrotation Yrotation
        JOINT Bip01_R_Calf
        {
          OFFSET 34.2647 0 0
          CHANNELS 6 Xposition Yposition Zposition Zrotation Xrotation Yrotation
          JOINT Bip01_R_HorseLink
          {
            OFFSET 20.4429 0 0
            CHANNELS 6 Xposition Yposition Zposition Zrotation Xrotation Yrotation
            JOINT Bip01_R_Foot
            {
              OFFSET 16.5673 0 0
              CHANNELS 6 Xposition Yposition Zposition Zrotation Xrotation Yrotation
              JOINT Bip01_R_Toe0
              {
                OFFSET 9.18784 6.94841 0
                CHANNELS 6 Xposition Yposition Zposition Zrotation Xrotation Yrotation
                JOINT Bip01_R_Toe0Nub
                {
                  OFFSET 1.01907 0 0
                  CHANNELS 6 Xposition Yposition Zposition Zrotation Xrotation Yrotation
                  End Site
                  {
                    OFFSET 0 0 0
                  }
                }
              }
            }
          }
        }
      }
      JOINT Bip01_L_Thigh
      {
        OFFSET -22.1873 0.67701 17.1024
        CHANNELS 6 Xposition Yposition Zposition Zrotation Xrotation Yrotation
        JOINT Bip01_L_Calf
        {
          OFFSET 34.2647 0 0
          CHANNELS 6 Xposition Yposition Zposition Zrotation Xrotation Yrotation
          JOINT Bip01_L_HorseLink
          {
            OFFSET 20.4429 0 0
            CHANNELS 6 Xposition Yposition Zposition Zrotation Xrotation Yrotation
            JOINT Bip01_L_Foot
            {
              OFFSET 16.5673 0 0
              CHANNELS 6 Xposition Yposition Zposition Zrotation Xrotation Yrotation
              JOINT Bip01_L_Toe0
              {
                OFFSET 9.18784 6.9484 1.14441e-005
                CHANNELS 6 Xposition Yposition Zposition Zrotation Xrotation Yrotation
                JOINT Bip01_L_Toe0Nub
                {
                  OFFSET 1.01907 0 0
                  CHANNELS 6 Xposition Yposition Zposition Zrotation Xrotation Yrotation
                  End Site
                  {
                    OFFSET 0 0 0
                  }
                }
              }
            }
          }
        }
      }
      JOINT Bip01_Spine1
      {
        OFFSET 39.3372 -0.0249863 0
        CHANNELS 6 Xposition Yposition Zposition Zrotation Xrotation Yrotation
        JOINT Bip01_Neck
        {
          OFFSET 34.2837 -15.5934 -4.318e-005
          CHANNELS 6 Xposition Yposition Zposition Zrotation Xrotation Yrotation
          JOINT Bip01_R_Clavicle
          {
            OFFSET -17.9452 -11.3131 -6.19287
            CHANNELS 6 Xposition Yposition Zposition Zrotation Xrotation Yrotation
            JOINT Bip01_R_UpperArm
            {
              OFFSET 17.4439 1.52588e-005 -2.28882e-005
              CHANNELS 6 Xposition Yposition Zposition Zrotation Xrotation Yrotation
              JOINT Bip01_R_Forearm
              {
                OFFSET 30.6251 1.14441e-005 0
                CHANNELS 6 Xposition Yposition Zposition Zrotation Xrotation Yrotation
                JOINT Bip01_R_Hand
                {
                  OFFSET 31.2039 0 0
                  CHANNELS 6 Xposition Yposition Zposition Zrotation Xrotation Yrotation
                  JOINT Bip01_R_Finger0
                  {
                    OFFSET 22.1039 0.255862 -0.37902
                    CHANNELS 6 Xposition Yposition Zposition Zrotation Xrotation Yrotation
                    JOINT Bip01_R_Finger0Nub
                    {
                      OFFSET 12.0552 0 0
                      CHANNELS 6 Xposition Yposition Zposition Zrotation Xrotation Yrotation
                      End Site
                      {
                        OFFSET 0 0 0
                      }
                    }
                  }
                }
              }
            }
          }
          JOINT Bip01_L_Clavicle
          {
            OFFSET -17.9452 -11.3132 6.19281
            CHANNELS 6 Xposition Yposition Zposition Zrotation Xrotation Yrotation
            JOINT Bip01_L_UpperArm
            {
              OFFSET 17.444 0 1.14441e-005
              CHANNELS 6 Xposition Yposition Zposition Zrotation Xrotation Yrotation
              JOINT Bip01_L_Forearm
              {
                OFFSET 30.6251 0 0
                CHANNELS 6 Xposition Yposition Zposition Zrotation Xrotation Yrotation
                JOINT Bip01_L_Hand
                {
                  OFFSET 31.204 0 0
                  CHANNELS 6 Xposition Yposition Zposition Zrotation Xrotation Yrotation
                  JOINT Bip01_L_Finger0
                  {
                    OFFSET 22.1039 0.255856 0.379024
                    CHANNELS 6 Xposition Yposition Zposition Zrotation Xrotation Yrotation
                    JOINT Bip01_L_Finger0Nub
                    {
                      OFFSET 12.0552 0 0
                      CHANNELS 6 Xposition Yposition Zposition Zrotation Xrotation Yrotation
                      End Site
                      {
                        OFFSET 0 0 0
                      }
                    }
                  }
                }
              }
            }
          }
          JOINT Bip01_Neck1
          {
            OFFSET 14.9359 -0.0106278 0
            CHANNELS 6 Xposition Yposition Zposition Zrotation Xrotation Yrotation
            JOINT Bip01_Head
            {
              OFFSET 14.3578 0.505501 0
              CHANNELS 6 Xposition Yposition Zposition Zrotation Xrotation Yrotation
              JOINT BN_Ear_L_01
              {
                OFFSET 3.76994 -2.35629 12.3444
                CHANNELS 6 Xposition Yposition Zposition Zrotation Xrotation Yrotation
                End Site
                {
                  OFFSET 0 0 0
                }
              }
              JOINT BN_Ear_R_01
              {
                OFFSET 3.76995 -2.35622 -12.3442
                CHANNELS 6 Xposition Yposition Zposition Zrotation Xrotation Yrotation
                End Site
                {
                  OFFSET 0 0 0
                }
              }
              JOINT BN_Mouth_01
              {
                OFFSET 11.8395 10.8645 1.27e-005
                CHANNELS 6 Xposition Yposition Zposition Zrotation Xrotation Yrotation
                JOINT BN_Tongue_01
                {
                  OFFSET 9.73752 3.21674 1.016e-005
                  CHANNELS 6 Xposition Yposition Zposition Zrotation Xrotation Yrotation
                  JOINT BN_Tongue_02
                  {
                    OFFSET 9.04304 0.053505 0
                    CHANNELS 6 Xposition Yposition Zposition Zrotation Xrotation Yrotation
                    End Site
                    {
                      OFFSET 0 0 0
                    }
                  }
                }
                JOINT BN_Beard_01
                {
                  OFFSET 6.93466 -0.751793 0
                  CHANNELS 6 Xposition Yposition Zposition Zrotation Xrotation Yrotation
                  JOINT BN_Beard_02
                  {
                    OFFSET 13.0965 1.52588e-005 0
                    CHANNELS 6 Xposition Yposition Zposition Zrotation Xrotation Yrotation
                    End Site
                    {
                      OFFSET 0 0 0
                    }
                  }
                }
              }
              JOINT Bip01_HeadNub
              {
                OFFSET 25.6158 0 0
                CHANNELS 6 Xposition Yposition Zposition Zrotation Xrotation Yrotation
                End Site
                {
                  OFFSET 0 0 0
                }
              }
            }
          }
        }
      }
    }
  }
}
MOTION
Frames:	4
Frame Time:	0.0333333
-43.3411 59.2349 1.37519 93.6158 -81.9825 -177.564 -3.8147e-006 4.76837e-007 7.10543e-015 -92.9345 -22.518 -81.7382 -18.6385 -9.59101 -1.77636e-015 -50.0638 0.326874 179.942 20.9743 7.6294e-006 -0.000629902 22.7721 0.200623 9.55993 20.3014 -1.52588e-005 8.88179e-016 7.73177 2.53046 16.974 21.6393 7.6294e-006 2.86102e-006 10.2958 5.51743 30.7461 20.0428 -9.10545 2.8725 -15.6317 8.37453 -1.21638 -22.181 0.421291 -19.7851 -73.0627 -6.8747 170.725 34.2647 -3.8147e-006 -3.8147e-006 -54.7395 5.0683e-006 8.17117e-006 20.4429 3.8147e-006 3.8147e-006 73.1238 1.78823e-007 1.26717e-006 16.5673 -1.42109e-014 5.72205e-006 4.22714 6.55724 9.2785 9.18784 6.94838 -7.10543e-015 91.3394 -4.33501e-007 -8.6961e-007 1.01907 0 3.8147e-006 7.18925e-008 -1.2122e-008 -7.71288e-007 -21.4611 5.40494 14.0472 -122.852 14.3759 -171.075 34.2647 -2.86102e-006 -1.90735e-006 -106.707 -4.39749e-006 -1.87624e-005 20.4429 3.55271e-015 -3.55271e-015 110.354 -5.04069e-006 -8.23812e-006 16.5673 0 -5.72205e-006 -29.0269 -5.25131 -4.2172 9.18783 6.94839 -3.8147e-006 89.9962 -2.08771e-007 1.11673e-006 1.01907 2.22045e-016 3.8147e-006 -179.96 1.72885e-005 -2.10185e-005 39.331 -0.0241776 -0.000950336 -14.367 2.20452 5.49386 34.2892 -15.5918 4.29153e-005 30.6637 -0.373277 -6.42843 -21.7193 -1.57146 -3.79508 145.252 -33.9749 121.481 17.4439 -1.14441e-005 0 42.1489 6.81145 -101.78 30.6251 -3.8147e-006 -1.90735e-006 -21.6608 8.18598e-006 3.37391e-006 31.2039 -3.55272e-015 1.90735e-006 -36.996 82.3877 9.53421 22.1039 0.255841 -0.379026 -8.7066 9.65671 -42.2509 12.0552 -1.90735e-006 5.96045e-007 179.96 -8.87178e-006 1.72039e-005 -20.3324 -1.65177 8.51244 154.596 43.6801 -106.613 17.444 -7.6294e-006 -3.8147e-006 39.6617 -48.7679 87.1648 30.6251 -3.8147e-006 3.81469e-006 -63.1325 -8.89487e-006 -1.33347e-005 31.2039 -7.10544e-015 3.81469e-006 -164.764 -73.5035 -163.118 22.1039 0.255841 0.379047 -10.7624 6.07329 10.0774 12.0552 -3.81471e-006 -7.62938e-006 3.76769e-007 1.0345e-005 1.4247e-006 14.9354 -0.0106583 0.000170231 1.28798 -0.903701 1.44067 14.3578 0.505486 -4.76837e-007 -21.0984 -3.53519 1.6727 3.7699 -2.35626 12.3444 -172.201 32.7368 -81.1316 3.76995 -2.3562 -12.3442 5.88486 29.4885 114.375 11.8396 10.8645 -4.76837e-007 -177.002 -3.76322 178.789 9.7375 3.21675 -1.77636e-015 -2.85748 1.87967e-007 2.14889e-009 5.17482 0.535263 -0.1598 -9.73029 1.03594e-006 1.15645e-007 6.93465 -0.751801 -9.53675e-007 -85.1773 -2.85033 -1.72699 13.0966 3.05176e-005 -4.44089e-016 -7.89264 -1.63549 -12.1212 25.6158 7.6294e-006 4.44089e-016 -1.13304e-007 1.12876e-006 -2.21826e-008 
-43.3067 59.6616 0.767665 97.0371 -83.1045 -172.754 -3.8147e-006 4.76837e-007 0 -92.1439 -18.7766 -82.7747 -18.6385 -9.59101 0 -49.4837 0.459442 179.937 20.9743 7.62939e-006 -0.000629902 22.6265 -0.0411342 9.73459 20.3014 -1.52588e-005 -1.77636e-015 8.28706 2.07049 16.9996 21.6393 7.6294e-006 2.86102e-006 10.594 4.56847 29.9368 20.6353 -7.7648 2.58743 -14.2497 7.17913 -0.679066 -22.1465 -0.0354796 -19.5793 -73.212 -5.77187 170.048 34.2647 -3.8147e-006 -3.8147e-006 -55.6686 -3.36255e-006 1.39016e-005 20.4429 3.8147e-006 3.8147e-006 71.3326 1.15019e-007 1.23844e-006 16.5673 2.84217e-014 5.72205e-006 5.96385 6.4503 9.58912 9.18784 6.94838 1.33736e-009 91.3688 -0.00417697 -0.545042 1.01907 -2.13163e-014 3.8147e-006 7.18925e-008 -1.2122e-008 -7.71288e-007 -21.7429 4.24092 14.3548 -121.124 14.4743 -171.803 34.2647 -2.86102e-006 -1.90735e-006 -104.19 3.53472e-006 -1.63436e-005 20.4429 -3.55271e-015 1.42109e-014 109.13 -3.65169e-006 -8.77656e-006 16.5673 -3.55271e-014 -5.72205e-006 -29.06 -5.32452 -3.72926 9.18783 6.94839 -3.82131e-006 89.7611 0.12511 0.473475 1.01907 1.73195e-014 3.8147e-006 -179.96 1.72885e-005 -2.10185e-005 39.3325 -0.0241032 -0.000878519 -11.0783 2.21854 4.87758 34.2892 -15.5918 4.29158e-005 29.0163 -0.0983637 -5.86978 -21.6258 -2.20874 -4.00529 147.302 -33.9814 118.946 17.4439 -1.14441e-005 1.42108e-014 41.7598 7.67611 -100.019 30.6251 -3.8147e-006 -1.90735e-006 -27.4023 7.58655e-006 4.03314e-006 31.2039 1.77636e-015 1.90735e-006 -39.5096 83.0429 13.525 22.1039 0.255841 -0.379026 -7.93059 9.39858 -41.2239 12.0552 -1.90735e-006 5.96045e-007 179.96 -8.8718e-006 1.72041e-005 -20.3587 -2.22968 8.31538 156.133 45.7519 -106.148 17.444 -7.6294e-006 -3.8147e-006 44.5172 -48.0475 89.0598 30.6251 -3.8147e-006 3.81469e-006 -66.4265 -8.30825e-006 -1.34926e-005 31.2039 2.13163e-014 3.81469e-006 -164.744 -73.9029 -163.613 22.1039 0.255841 0.379047 -9.57831 7.42617 10.8916 12.0552 -3.81471e-006 -7.62938e-006 3.76769e-007 1.0345e-005 1.4247e-006 14.9354 -0.0106583 0.000170231 0.745279 -0.415528 0.924476 14.3578 0.505486 -4.76524e-007 -20.2523 -4.60387 0.938077 3.7699 -2.35626 12.3444 -172.346 32.3973 -80.9475 3.76995 -2.3562 -12.3442 6.19526 29.5342 113.9 11.8396 10.8645 -4.6695e-007 -177.002 -3.76325 178.789 9.7375 3.21675 2.66376e-009 -2.85748 1.98276e-007 4.51418e-009 5.17482 0.535263 -0.1598 -9.73029 1.06089e-006 1.21912e-007 6.93465 -0.751801 -9.54297e-007 -85.5708 -2.96141 -2.21087 13.0966 3.05176e-005 5.87308e-014 -7.86255 -2.31279 -8.68447 25.6158 7.6294e-006 9.54792e-015 -1.13304e-007 1.12876e-006 -2.21826e-008 
-43.3756 60.1293 0.087947 102.245 -84.2139 -166.05 -3.8147e-006 4.76837e-007 1.42109e-014 -91.15 -14.9723 -83.8749 -18.6385 -9.59101 0 -48.0075 0.811187 179.937 20.9743 7.62939e-006 -0.000629902 22.2689 -0.66751 10.1813 20.3014 -1.52588e-005 7.77156e-016 9.70584 0.893176 17.0811 21.6393 7.6294e-006 2.86102e-006 11.1369 2.12499 27.9185 21.1458 -6.36787 2.25287 -12.9041 5.87263 -0.121174 -22.0752 -0.503952 -19.3586 -73.5015 -4.57724 169.339 34.2647 -3.8147e-006 -3.8147e-006 -56.6419 4.74418e-006 8.33398e-006 20.4429 3.8147e-006 3.8147e-006 69.2615 3.76926e-008 1.20778e-006 16.5673 -1.42109e-014 5.72205e-006 8.00884 6.39037 9.9454 9.18784 6.94838 2.49607e-009 91.1678 -0.0215113 -0.897489 1.01907 5.10702e-014 3.8147e-006 7.18925e-008 -1.2122e-008 -7.71288e-007 -22.0027 2.99635 14.6667 -119.414 14.6094 -172.59 34.2647 -2.86102e-006 -1.90735e-006 -101.359 2.50499e-006 -1.6546e-005 20.4429 3.55271e-015 1.77636e-014 107.762 -3.73226e-006 -8.77917e-006 16.5673 -2.4869e-014 -5.72205e-006 -29.2698 -5.36936 -3.13985 9.18783 6.94839 -3.828e-006 89.5294 0.245917 0.93825 1.01907 3.90799e-014 3.8147e-006 -179.96 1.72885e-005 -2.10185e-005 39.334 -0.0240302 -0.000808096 -7.70276 2.19628 4.21186 34.2892 -15.5918 4.29161e-005 27.3173 0.179159 -5.27822 -21.5075 -2.86348 -4.22211 149.428 -33.9481 116.442 17.4439 -1.14441e-005 1.42108e-014 41.4265 9.23308 -98.1875 30.6251 -3.8147e-006 -1.90735e-006 -32.1753 6.75044e-006 4.99732e-006 31.2039 3.55272e-015 1.90735e-006 -42.7827 83.6785 17.8651 22.1039 0.255841 -0.379026 -7.09148 9.22025 -40.3774 12.0552 -1.90735e-006 5.96045e-007 179.96 -8.8718e-006 1.72043e-005 -20.3674 -2.82446 8.11092 157.693 48.1464 -105.695 17.444 -7.6294e-006 -3.8147e-006 49.7414 -47.4865 91.021 30.6251 -3.8147e-006 3.81469e-006 -69.5252 -6.44339e-006 -1.41392e-005 31.2039 7.81599e-014 3.81469e-006 -165.313 -74.2295 -164.489 22.1039 0.255841 0.379047 -8.35988 8.94503 11.656 12.0552 -3.81471e-006 -7.62938e-006 3.76769e-007 1.0345e-005 1.4247e-006 14.9354 -0.0106583 0.000170231 0.0870927 0.094738 0.412595 14.3578 0.505486 -4.76181e-007 -19.4887 -5.68225 0.138946 3.7699 -2.35626 12.3444 -172.487 32.0641 -80.7686 3.76995 -2.3562 -12.3442 7.02106 29.6352 112.645 11.8396 10.8645 -4.56087e-007 -177.002 -3.76328 178.789 9.7375 3.21675 5.22449e-009 -2.85748 2.10033e-007 6.78798e-009 5.17482 0.535263 -0.1598 -9.73029 1.08979e-006 1.27624e-007 6.93465 -0.751801 -9.54896e-007 -88.3978 -3.67943 -4.32926 13.0966 3.05176e-005 1.78524e-013 -7.4418 -3.8846 -0.743646 25.6158 7.6294e-006 1.26565e-014 -1.13304e-007 1.12876e-006 -2.21826e-008 
-43.5212 60.6383 -0.660792 110.808 -85.2732 -155.892 -3.8147e-006 4.76837e-007 1.42109e-014 -89.9599 -11.0382 -85.0756 -18.6385 -9.59101 0 -45.8994 1.36397 179.925 20.9743 7.62939e-006 -0.000629902 21.7992 -1.5728 10.8248 20.3014 -1.52588e-005 -4.44089e-016 11.7497 -0.818115 17.2487 21.6393 7.6294e-006 2.86102e-006 11.5023 -1.4776 25.1459 21.5712 -4.89449 1.85519 -11.5341 4.45069 0.456758 -21.9624 -0.991418 -19.1137 -73.8603 -3.26688 168.624 34.2647 -3.8147e-006 -3.8147e-006 -57.5536 4.58453e-006 8.40921e-006 20.4429 3.8147e-006 3.8147e-006 66.8394 9.1553e-006 5.11334e-006 16.5673 1.42109e-014 5.72205e-006 10.3438 6.39367 10.329 9.18784 6.94838 3.376e-009 90.6882 -0.0417691 -0.982754 1.01907 6.17284e-014 3.8147e-006 7.18925e-008 -1.2122e-008 -7.71288e-007 -22.2346 1.66319 14.9869 -117.668 14.7623 -173.418 34.2647 -2.86102e-006 -1.90735e-006 -98.2104 2.74271e-006 -1.64959e-005 20.4429 0 2.13163e-014 106.228 -4.40188e-006 -8.62184e-006 16.5673 -7.4607e-014 -5.72205e-006 -29.6111 -5.37601 -2.47565 9.18783 6.94839 -3.83493e-006 89.2097 0.382739 0.980706 1.01907 5.99521e-015 3.8147e-006 -179.96 1.72886e-005 -2.10186e-005 39.3355 -0.0239642 -0.000736976 -4.18457 2.12717 3.49433 34.2892 -15.5918 4.29162e-005 25.5416 0.45681 -4.64805 -21.3599 -3.54498 -4.44774 151.657 -33.8699 113.893 17.4439 -1.14441e-005 0 41.045 11.3503 -96.2247 30.6251 -3.8147e-006 -1.90735e-006 -36.4284 5.46437e-007 1.30409e-005 31.2039 -3.55272e-015 1.90735e-006 -47.0726 84.3094 23.0262 22.1039 0.255841 -0.379026 -6.1962 9.10494 -39.6207 12.0552 -1.90735e-006 5.96045e-007 179.96 -8.87182e-006 1.72046e-005 -20.3558 -3.44568 7.89677 159.257 50.8479 -105.209 17.444 -7.6294e-006 -3.8147e-006 55.3729 -47.12 93.0677 30.6251 -3.8147e-006 3.81469e-006 -72.4764 -5.37507e-006 -1.44132e-005 31.2039 1.20793e-013 3.81469e-006 -166.456 -74.4722 -165.835 22.1039 0.255841 0.379047 -7.08288 10.6185 12.3904 12.0552 -3.81471e-006 -7.62938e-006 3.76769e-007 1.0345e-005 1.4247e-006 14.9354 -0.0106583 0.000170231 -0.663904 0.64408 -0.101182 14.3578 0.505486 -4.75807e-007 -18.7638 -6.768 -0.725391 3.7699 -2.35626 12.3444 -172.848 31.2232 -80.3981 3.76995 -2.3562 -12.3442 8.47642 29.7333 110.513 11.8396 10.8645 -4.43729e-007 -177.002 -3.76332 178.789 9.7375 3.21675 7.85488e-009 -2.85748 2.23432e-007 9.12362e-009 5.17482 0.535263 -0.1598 -9.73029 1.12314e-006 1.33268e-007 6.93465 -0.751801 -9.5551e-007 -92.4969 -4.62871 -7.13569 13.0966 3.05176e-005 2.71783e-013 -6.25737 -5.67564 8.86224 25.6158 7.6294e-006 1.73195e-014 -1.13304e-007 1.12876e-006 -2.21826e-008 
